<svg width="512" height="512" viewBox="0 0 512 512" xmlns="http://www.w3.org/2000/svg">
  <defs>
    <linearGradient id="bg" x1="0" y1="0" x2="0" y2="1">
      <stop offset="0" stop-color="#ffb066"/>
      <stop offset="1" stop-color="#ff8a3d"/>
    </linearGradient>
  </defs>
  <rect width="512" height="512" rx="112" fill="url(#bg)"/>
  <!-- dragon -->
  <g transform="translate(256 268) scale(3.1) translate(-50 -55)">
    <ellipse cx="50" cy="92" rx="22" ry="5" fill="rgba(45,42,74,.15)"/>
    <path d="M26 52 Q8 40 12 60 Q20 60 28 58 Z" fill="#7c4dff"/>
    <path d="M74 52 Q92 40 88 60 Q80 60 72 58 Z" fill="#7c4dff"/>
    <path d="M70 74 Q86 76 82 60 Q78 68 70 66 Z" fill="#2bbf8a"/>
    <ellipse cx="50" cy="58" rx="30" ry="30" fill="#34d399"/>
    <ellipse cx="50" cy="64" rx="18" ry="20" fill="#d5fbe8"/>
    <path d="M38 30 L34 16 L44 28 Z" fill="#ffd23f"/>
    <path d="M62 30 L66 16 L56 28 Z" fill="#ffd23f"/>
    <circle cx="33" cy="58" r="6" fill="#ff9bd0" opacity=".7"/>
    <circle cx="67" cy="58" r="6" fill="#ff9bd0" opacity=".7"/>
    <circle cx="41" cy="48" r="9" fill="#fff"/>
    <circle cx="59" cy="48" r="9" fill="#fff"/>
    <circle cx="42" cy="49" r="4.5" fill="#2d2a4a"/>
    <circle cx="58" cy="49" r="4.5" fill="#2d2a4a"/>
    <circle cx="40.5" cy="47.5" r="1.4" fill="#fff"/>
    <circle cx="56.5" cy="47.5" r="1.4" fill="#fff"/>
    <path d="M42 64 Q50 72 58 64" stroke="#2d2a4a" stroke-width="3" fill="none" stroke-linecap="round"/>
  </g>
</svg>
